<?xml version="1.0" encoding="UTF-8"?><svg id="Calque_1" xmlns="http://www.w3.org/2000/svg" viewBox="0 0 355.79 470.28"><defs><style>.cls-1{fill:#f85120;}.cls-2{fill:#fef9ac;}.cls-3{fill:#f9712f;}.cls-4{fill:#f7e47b;}.cls-5{fill:#f68e6f;}.cls-6{fill:#f9ec94;}.cls-7{fill:#fb7c36;}.cls-8{fill:#fd9d46;}.cls-9{fill:#fdde56;}.cls-10{fill:#fcf9c9;}.cls-11{fill:#fcbe4f;}.cls-12{fill:#f7af48;}.cls-13{fill:#ebe1df;}</style></defs><path class="cls-5" d="M189.72,15.01h-20.5s-2.36,1.64-2.36,1.64l-1.14,82.36V14.01c.33,0,.67,0,1,0,7.46.11,15.89-.92,23,1Z"/><path class="cls-5" d="M37.72,413.01v12c-.38-.15-1.28.32-1.85-.11l-.14-11.9c.66-.05,1.34.05,2,0Z"/><path class="cls-5" d="M162.72,14.01c-2.19,2.19-8.02,1.35-8.89-1.76-.58-1,.89-2.09.89-2.24l.93,3.55c2.28.9,4.72.34,7.07.45Z"/><path class="cls-5" d="M44.72,413.01c-1.88.2-4.04-.05-6,0,1.01-1.64,5.05-1.61,6,0Z"/><path class="cls-5" d="M1.72,341.01l-.91-.59c-.29-1.12,0-2.29-.09-3.41l1,4Z"/><path class="cls-5" d="M166.72,1.01L164.72.01l2,1Z"/><path class="cls-5" d="M154.72,2.01L155.72.01c.39,1-.98,1.89-1,2Z"/><path class="cls-5" d="M108.72,129.01l-1,1c.02-.67-.03-1.34.01-2,.8-.26.8.95.99,1Z"/><path class="cls-5" d="M111.72,129.01h-1c.11,0,.82,0,1,0Z"/><path class="cls-5" d="M95.72,160.01c.09-.73.98-.93,1-1l-1,1Z"/><path class="cls-1" d="M189.72,15.01l.99,13.01,10.57.93,1.54,13.95,10.9.1.99,14.01h21.5l1.5,14.01,11.87,1.14.58,12.92,10.63,1.37,1.92,13.11c.94.44,1.99.54,3.01.45,1.37.39,2.7.39,4,0,.53.15,1.37-.1,2,0l.95,13.02,1.54.59.43,12.19c4.83-.6,8.19.14,10.08,2.2.24,25.69,1.75,55.77,0,81-.58,2.15-.25,3.49,1,4,1.66.07,3.34-.07,5,0,3.82.06,5.82,1.39,6,4,.15,7.62.16,15.38,0,23,2.05,2.2,7.3,2.32,10,1,.33,0,.67.02,1,0,1.2-3.66,1.61-7.83,1.21-12.49,3.56-.11,6.82-.61,9.79-1.51.33,0,.67.02,1,0,1.16-4.52,1.49-9.37,1-14.56,4.19-2.78,12.92-3,11,4.56-.15,1.27.2,2.78,0,4-.17,1.83.17,3.5,1,5,.02.33-.02.67,0,1,2.99,1.13,6.44,1.47,10.36,1l.64,1c.4,8.22.28,17.74,0,26,8.66,6.06,9.76,9.92,3.3,11.58l-.03,1.42c4.31-.79,7.22-.12,8.73,2,.22,22.98-.16,46.02,0,69l-2.03,1.66c-4.24.19-7.57.97-9.97,2.34.17,8.31-.13,16.68,0,25-4.94.6-8.61,1.27-11,2-.02,1.5-.37,2.62-1.03,1.29l-.29,11.25-10.56.93c-.31,2.07-1.07,2.15-1.05.3.5,5.08.15,9.48-1.07,13.23-5.96,2.38-14.42.33-21,1l-1,1c.2,3.3-.28,6.72,0,10-.47.4-.47.73,0,1v1l1,1c2.55.25,5.56-.35,8,0,2.43,2.53,3.37,14.08-2,14-1.97.17-4.02-.11-6,0l-1,1c-.04,1,.06,2.01,0,3-.46.4-.46.73,0,1-.07.99.07,2.01,0,3-.5.86-.5,1.52,0,2-.04.66.08,1.36,0,2l-.28.93c-10.07-.63-13.98,3.06-11.72,11.07.1.98-.07,2.01,0,3-12.46,1.42-25.13,1.76-38,1h-8c-4.75,1.59-4.7-14.98.5-14,1.25-2.95,10.89-2.32,14.55-2,3.38-.67,5.53,0,6.45,2-.74-.52-.84-1.21-.92-2.03-.21-2.39-.73-11.94.2-13.07s13.02-2.18,13.22,1.09c-3.3-.79-3.04-12.62,0-14,.81-3.18,10.91-3.05,12,0-.78-.21-1.95-.55-2-1.15-.53-6.86-.52-18.05,0-24.92l2-1.44.61-2.09,8.72-1.09.71-11.02c2.57-2.48,6.37-3.5,11.4-3.07l.52-9.94,2.04-1.29c-.21.78-.53,1.91-1.17,2-2.82.41-18.86.49-21.38,0l-1.46-2c-2.73-4.92-2.77-10.09,0-15,1.68-2.2,5.03-2.87,10.05-2-.23-4.22-.42-8.33,1.95-12-3.11-13.63-2.44-28-1.11-41.84-7.68,1.4-15.38,1.03-22.89-1.16-4.08,2.49-7.93,2.52-12,0-3.32,2.86-7.76,2.89-11,0-2.97-9.08-2.89-18.9,0-28-3.17-23.41-2.93-47.57,0-71-1.76-3.58-2.52-7.58-2.28-12-4.69.83-7.93.17-9.72-2-2.34-8.67-2.89-17.67-1.64-27h-9.01c-5.34-1.78-4.01-11.25-1.35-16l-2-1.76-.13-9.33c-4.85.32-8.13-.65-9.86-2.91-2.01-4.18-2.69-8.7-1.37-13.16-1.79,1.66-9.18.86-10.63-1.84l-2-1.09v-9.29c-7.71-.39-7.58,1.37-6.99,8.9l-2.01,2.48c2.54,2.51,2.72,14.26,1.12,15.16-3.1,1.75-8.16.88-11.12-1.16-.37-.37-.7-.37-1,0,.78.13,1.94.45,1.95,1.01.07,3.55-1.03,26.68-2.07,28.04-3.38,1.19-7.06,1.87-11.03,2.04l-.89,11.34c-2.56,2.25-6.21,3.08-10.93,2.49.69,4.7.01,8.73-2.04,12.08-1.39,2.16-4.4,2.82-9.05,2,.21,4.66-.77,8.66-2.95,12,2.87,3.58,3.04,10.5,0,14-1.51,2.34-4.8,3.28-9.88,2.83.43,4.16-.28,7.89-2.12,11.17,2.43,8.64,3.17,19.91,1.33,28.75-.28,1.36-13.08,2.74-13.33-.75.77,0,1.96.18,2,.68.81,9.86,1.11,30.04,0,39.63l-2,1.19c-.44,3.26-10.51,4.38-12,1.5.78.1,1.92.33,2,.91.64,4.82.69,21.87,0,26.62l-2,1.47c-15.65,1.97-31.35,1.97-47,0l-2.03-.79-.47-12.23h-6.56c.26,4.53.46,9-1.93,13.02,2.4,22.88,2.95,45.88,1.64,69,4.52-.82,7.64-.15,9.36,2,.78.09,1.93.33,2,.9.54,4.39.7,21.53,0,25.63l-2,1.46c1.32-3.44,13.32-3.11,14.04,1.02l.35,10.62c3.96-.24,7.17.54,9.61,2.36l2,.87v11.11c4.04-.68,7.37,0,10,2.01.19-3.39,10.75-2.41,12.24-.98,1.77,1.7,3.02,13.02-.24,13.98-5.69,1.12-30.26,3.26-34.46.68-.75-.46-.6-3.64-.54-4.68-.05-1.33.08-2.68,0-4l-1-3c-.12-.59.08-1.36,0-2-.4-.47-.73-.47-1,0-.64-.09-1.42.13-2,0h-17c-.66.06-1.34-.04-2,0-.56-4.74-1.23-9.41-2-14-3.99-.19-6.05.56-10-1-1.57-2.37-1.62-9.55,0-12,.33-.02.67,0,1,0,1.87-.86,4.11-.77,6,0,1.14-.12,1.99-.6,3-1,.26-2.03.62-2.49,1.09-1.36l-.09-11.64c-.48-.79-1.18-.85-2-1-.39-.47-.73-.47-1,0-1.64-.16-3.36.15-5,0-3.96-1.02-5.29-5.04-4-12.05l-1-1.95c-1.99-.1-4.02.15-6,0-2.4-.19-4.06-1.19-5-3-.21-1.2.15-2.73,0-4-.78-6.65-1.59-13.38-2.44-20.2-4.75.44-7.94-.49-9.56-2.8-.09-3.99.06-8.01,0-12l-2-1c-2.45-.54-6.3.38-9,0-.71-1.08-1.04-2.41-1-4-1.54-20.05-.16-44.5,0-65,.35-3.96,3.42-5.25,9.22-3.88.38-4.91,1.31-9.62,2.78-14.12.01-.67-.01-1.33,0-2,.46-.4.46-.73,0-1,.02-1.33-.08-2.68,0-4,.46-.4.46-.73,0-1,.06-.65-.12-1.43,0-2l.72-1.18c9.37.83,13.13-2.45,11.28-9.82.11-.98-.05-2.01,0-3,.49-.86.49-1.52,0-2,.03-1,0-2,0-3-.33-10.74-.18-12.4,11.01-11.16l.46,12.99,1.52.52c.05,4.2.53,8.17,1.46,11.9,3.99-.19,6.98.59,8.98,2.34-.79,6.55-.6,11.02.57,13.41.36.19.73.96,1,1,.39.47.73.47,1,0,2.25.22,4.7-.11,7,0,1.39,1.77,2.06,4.44,2,8-.02,1.59.21,3.53,0,5,2.52,2.42,10.81,2.84,12.75.01l9.15-1.15.1-10.46,2-1.4c2.65-.05,5.36.15,8,0,1.02.74,1.95.66,3,0l1-1c.46-.39.46-.73,0-1,.43-3.2-.04-7.57,0-11v-80c.05-.99-.12-2.03,0-3l1-1c.1-.32-.11-.74,0-1l.45-1c3.51.43,6.7.1,9.55-1,.02-.33,0-.67,0-1,.59-8.01,1.13-16.02,1-24-.03-.32-.01-.67,0-1,.13-.64.24-1.08,1-1,.51.13,1.35-.03,2,0h1c1.99-.04,4.02.12,6,0,1.89-2.55,5.34-3.64,10.35-3.25.76-3.14.98-6.59.65-10.35l2-1.4c7.65-.09,15.35.07,23,0l1-2c.47-2.1-.21-5.57,0-8l1.42-3.95c3.15.36,6.01.01,8.58-1.05h1l.8-83.84c1.23-1.49,20.09-.58,23.2-.16Z"/><path class="cls-8" d="M201.72,99.01c4.27-.1,7.84.79,11.99,1.01.04,4.65-.02,9.34,0,13.99,1.79,3.78,2.64,7.9,1.64,12,4.91-.85,8.36-.19,10.36,2,.08,4.65-.06,9.35,0,14.01h12.01c.06,9.64-.1,19.34,0,28.99,1.76,3.58,2.52,7.58,2.28,12,4.69-.83,7.93-.17,9.72,2,.22,23.64-.07,47.35,0,71-.81,3.18-10.91,3.05-12,0,.78.21,1.95.54,2,1.14.52,6.49.51,17.45,0,23.94l-2,1.42c2.99-.93,10.08-1.25,12,1.5,2.41,3.98,2.65,8.57,1.17,12.9,3.55-1.61,7.59-1.2,10.83,1.1,2.63-2.22,5.74-2.18,9-2.01v-10.59s2-1.4,2-1.4c7.99.03,16.02-.02,24.01,0-.11,14.32.13,28.69,0,43.01-1.68,2.2-5.03,2.87-10.05,2,.34,4.16-.03,8.22-1.95,12-.04,4.99.03,10.01,0,15h24l-.44,13.06-11.57.93-.46,13.06-11.54,1.45v27.5h-12v14h-12c-.84,4.62,3.22,10.22-.5,14h-21c-2.56,2.71-1.47,7.91-1.53,11.57-.02,1.29,1.03,2.3,1.03,2.43,0,.53-.99,1.52-1,2-2.41,1.62-11.68,1.98-13-1-1.81-3.11-1.96-12.69,1-15-2.47-4.74-2.5-9.27,0-14-.84-1.23-.38-1.71,1-1,1.59-2.03,4.67-2.41,9.24-1.16-.66-3.78-.44-7.59,1.76-10.84l.88-2.1,8.47-1.12c-.06-2.5.82-4.09,2.65-4.78.86-2.07.86-4.74,0-8-2.8-2.96-2.86-7.07,0-10l.97-18.96c2.47-1.16,5.25-1.64,8.34-1.45,1.61-6.4-.3-9.52-5.73-9.37-1.04-1.94-4.43-15.57-4.23-16.41s.96-1.37,1.66-1.81c.09,2.01-1.03,2.63-2.58,1.5-12.68.88-28.87.45-41.74,0-.7-.02-1.04-.71-1.19-1.5-.49.13-.97.23-1.45.19-2.03-.17-.9-19.53-.59-22.38l-1.46-2.81c-.91-.1-.86-.45,0-1-1.39-1.02-4.65-1.36-9.79-1-.33-18.33.06-37.01.44-55.34l1.35-.66c1.95-1.95,4.05-1.94,6,0h1c.31-.85.64-.84,1,0,1.45-4.46,2.15-10.16,0-13-4.21.49-7.88.15-11-1-2.71,3.15-9.19,2.97-12,0-2.71,1.98-5.99,2.64-9.86,1.97.15,3.78-.12,7.44-.81,10.98l-13.18.53c-1.08,3.4-1.6,7.92-1.58,13.57-3.36-.59-6.22-.27-8.57.96-.3,1.91-1.09,1.8-2,0-.96.87-.96,1.87,0,3,3.17,6.41,3.45,16.78,0,23l-.45,1.16c-4.55-.52-7.73-.24-9.55.84.02.48,0,.94-.14,1.35-.12.34-.55.49-.52.47,1.28-.82,1.43,7.02-1.34,7.18-.4.7-.42,1.31,0,2,1.94,1.27,1.95,2.74,0,4-.86,2.58-.85,5.42,0,8,2.84,15.52,2.95,31.49,0,47-2.26.78-4.59,1.45-7,2-1.21,2.77-2.78,2.75-4,0-1.12-1.34-6.24-1.69-11-1-.31,1.9-1.1,1.79-2,0l-1.36,1.95c-6.8-1.65-9.22,1.73-7.25,10.13,3.45.03,6.21.75,8.27,2.15-.36,9.8.09,19.39,1.34,28.77.19-.88.52-.85,1,0,2.82,1.06,5.94,1.39,9.36,1l.64,1c2.75.89,2.74,2.11,0,3v2c2.48,1.81,2.49,3.2,0,5v4c2.16,2.57,2.78,5.94,1.85,10.12,4.51-.97,7.89-.35,10.15,1.88,3.03,4.34,2.93,10.57,0,15-3.23,2.8-10.01,1.93-12.94-.66-3.75.24-7.1-.2-10.06-1.34l-.44-12.06c-1.15-1.66-8.97-.88-11.56-.94l-2-.87v-11.11c-4.04.68-7.37,0-10-2.01-3.16-.07-6.34.11-9.51,0l-2.06-.94-.43-13.07h-12.01s0-27.99,0-27.99h-11.01c.16-23.64-.2-47.35,0-71,.68-3.16,10.05-3.02,11,0h47v-29l12-1.5v-41.5h12.01c.06-9.31-.1-18.68,0-28,1.68-2.2,5.03-2.87,10.05-2-.23-4.22-.42-8.33,1.95-12,.05-4.64-.2-9.37,0-14,1.68-2.2,5.03-2.87,10.05-2-.79-4.66-.14-8.66,1.95-12,.1-4.65-.07-9.35,0-14.01l11.07-.43.93-13.57,11.57-.93,1.44-28.06c.31-.46.64-.45,1,0,3.32-.03,6.68.02,10.01,0,.05-4.65-.08-9.35,0-14.01,1.32-3.08,8.43-2.45,11-1Z"/><path class="cls-1" d="M224.72,455.01c4.3.13,9.09-.79,13,1-.03,1.33.09,2.68,0,4-.86,1.9-.7,4.07,0,6-.11.69-.09,1.38-.52,1.98l-1.48,1.02h-22c-3.18-1.51-3.43-14.15,1-14,2.62-2.88,7.42-2.98,10,0Z"/><path class="cls-5" d="M24.72,225.01c.01-4.15-1.34-7.67.06-11.94l11.94-.06v14h12.01s0,28,0,28c-.39-.21-1.82.59-2.05-.62l.91-12.25-10.87-1.13-1.99-27.01-8.57.94-1.44,10.06Z"/><path class="cls-5" d="M72.72,449.01l1.36,4.16c11.05,2.42,22.55-.17,33.64-.16,7.85,0,15.31,1.59,23,2l1.96,1.72c-.09,4.21-.08,8.31.04,12.28-3.73.91-7.73.91-12,0-.51-.2-1.8.6-2.04-.63l.05-13.38-45.34.04c-3.03-1.74-.65-5.52-.67-6.04Z"/><path class="cls-5" d="M331.72,217.01l-1.61-4.07-8.39.06v14.01c-.66.05-1.33-.05-1.99,0v-28.01s12.56.94,12.56.94c.76,1.09.67,11.49.51,13.68-.13,1.81-1.02,2.96-1.07,3.38Z"/><path class="cls-5" d="M83.72,256.01v14.01c-8.96-1.1-15.97,4.23-25,.99-.4-1.06.97-1.84,1-1.99l12,1v-14c3.99-.05,8.01.08,12,0Z"/><path class="cls-5" d="M12.72,354.01l12.01.99c-1.18,7.21,1.99,15.33,0,22.01-.32-2.66-.71-5.3-1.05-7.95l-10.96-.05c-.07-4.99.12-10.02,0-15.01Z"/><path class="cls-5" d="M12.72,254.01c0,.07.69.48.68,1.27-.07,4.59-1.36,9.88-.68,14.73-1.06,1.06-10.78-2.1-12.01,1.99.04-5.32-.03-10.68,0-16.01,1.05-1.06,10.78,2.1,12.01-1.99Z"/><path class="cls-5" d="M130.72,114.01v14.01c-4.42-.87-9.01.76-13,.99l.99-15.01c3.99-.03,8.02.05,12.01,0Z"/><path class="cls-5" d="M271.72,100.01l1.44,13.06,11.57.93c.03,4.66-.05,9.35,0,14.01h-12.01s-.99-28-.99-28Z"/><path class="cls-8" d="M145.72,455.01c2.87-2.9,7.57-2.82,10.47-.36.64.55,1.82,14.33-1.47,14.36h-11c-.33,0-.67,0-1,0-2.95-3.82-3.08-10.31,0-14,1.08-2.49,1.92-2.49,3,0Z"/><path class="cls-1" d="M142.72,455.01c-.13,4.65.09,9.35,0,14-1.33.01-2.67,0-4,0-2.05.54-4.05.54-6,0-3.5-2.08-1.94-9.71-2-14,2.87-2.85,9.24-3.03,12,0Z"/><path class="cls-1" d="M161.72.01c.4.46.73.46,1,0,.66.05,1.34-.03,2,0l2,1c.04.66-.05,1.34,0,2-.7,1.26-.79,2.74,0,4,.02.66,0,1.33,0,2-.7,1.01-.75,1.98,0,3v2c-.19.89-.52.86-1,0-1-.02-2,.04-3,0-3.89,1.33-9.36,1.05-8-4,.01-2.28-.42-6.1,0-8L155.72.01c2-.02,4,.03,6,0Z"/><path class="cls-5" d="M343.72,255.01l12.01.99c.03,4.65-.05,9.35,0,14.01h-11s.44-5.07.44-5.07l3.85-.95.73-2.48c-4.5-1.07-4.36-2.51-7.06-5.15,0-.74,1.04-1.22,1.05-1.36Z"/><path class="cls-13" d="M201.72,469.01c3.97-1.96,8.03-1.96,12,0h22-92c3.66-.02,7.34.01,11,0,.09-.79.37-1.97.92-2,12.13-.6,27.24-.61,39.35,0,3.62-.68,5.86-.01,6.72,2Z"/><path class="cls-5" d="M95.72,243.01c.33-26.25-1.39-54.01,0-80v80Z"/><path class="cls-5" d="M343.72,368.01l-2.5,1.99h-8.5s-.44,13.08-.44,13.08l-11.57.93.05,12.38c-.24,1.23-1.54.43-2.04.63l.14-13.86,11.87-1.14-.02-11.34c.3-1.11,1.89-.54,2.02-.66s-.45-1.72.66-2.02l10.34.02Z"/><path class="cls-5" d="M318.72,227.01c.68,4.16-8.02,1.01-9.01,1.99v12.01c-.66.05-1.33-.05-1.99,0l.44-13.06c1.14-1.64,8.1-.88,10.56-.94Z"/><path class="cls-5" d="M12.72,244.01c.27-1.26-.04-2.32,1.64-2.85l9.36-.15c-.85-2.89.75-5.75,1-8.01,4.5,11.83-4.07,9.3-12,11Z"/><path class="cls-8" d="M246.72,454.01c12.54,0,25.7.82,38-1l-.95,1.51-37.05-.51Z"/><path class="cls-8" d="M296.72,438.01c-.07.55.27,1.31-.14,1.82l-10.86,1.17-1,9c-.05-.48-1.12-2.04-1.07-4.51.03-1.46.31-4.25,1.31-5.26l11.76-2.24Z"/><path class="cls-5" d="M68.72,440.01c-4.72,1.68-12.21,1.69-17,0,6.76-.6,9.51-1.67,17,0Z"/><path class="cls-5" d="M303.72,426.01l3.07-2.55-1.07-11.45c1.32.19,2.35.05,2.85,1.64l-.81,11.92c-1.28.75-2.7.32-4.04.44Z"/><path class="cls-5" d="M106.72,155.01c.19-7.82-.98-16.53,1-24,.27,3.17,1.53,6.25,1.05,9.53l-2.05,14.47Z"/><path class="cls-5" d="M35.72,384.01c.66.03,1.34-.05,2,0l-.08,11.57,3.08,2.44c-1.06-.1-2.28.25-3.32-.14l-1.54-1.5-.14-12.36Z"/><path class="cls-5" d="M343.72,343.01c0-.11-1.13-.72-.96-1.39l12.96-2.61-1.64,2.85-10.36,1.15Z"/><path class="cls-5" d="M47.72,426.01c.66.03,1.34-.05,2,0v14.01s-1.83-2.73-1.83-2.73l-.17-11.27Z"/><path class="cls-5" d="M306.72,241.01v2s-10.96-1.61-10.96-1.61c-.17-.67.96-1.27.96-1.39,2.92,1.52,6.71,1.1,10,1Z"/><path class="cls-5" d="M48.72,399.01l1.05,12.4c-.16,1.21-1.53.4-2.05.6.89-4.37-.76-8.8,1-13Z"/><path class="cls-5" d="M332.72,227.01h11.01c.05.66-.04,1.34,0,2h-11.01c-.05-.66.04-1.34,0-2Z"/><path class="cls-5" d="M106.72,156.01c-.04.66.06,1.34,0,2h-10.01c.18-.42-.15-1.38,0-2h10.01Z"/><path class="cls-5" d="M164.72,99.01v2s-8.37-.05-8.37-.05l-1.63,3.06c.15-1.69.35-3.34,1.14-4.86l8.86-.14Z"/><path class="cls-13" d="M132.72,469.01c2,0,4,0,6,0-4.82,1.59-13.5,1.8-18,0h12Z"/><path class="cls-5" d="M290.72,213.01c1.99.08,4.01-.07,6.01,0,.03,1.33-.03,2.67,0,4-1.37-2.75-3.72-2.59-6-4Z"/><path class="cls-5" d="M332.72,226.01h-2c-.94-1.99.9-4.4,1-5,1.49,1.46.88,3.25,1,5Z"/><path class="cls-5" d="M57.72,256.01c.66.03,1.34-.05,2,0,0,2.66.03,5.35,0,8.01l-2-8Z"/><path class="cls-5" d="M29.72,384.01c-1.32-.1-2.81.34-4.04-.47-.99-.62-.8-1.59-.96-2.53l5,3Z"/><path class="cls-5" d="M269.72,100.01c-.57,1.69-3.03,1.24-4,0,1.55-.14.37-1.03,4,0Z"/><path class="cls-8" d="M237.72,466.01c-1.61-.95-1.64-4.99,0-6-.13,1.92.28,4.21,0,6Z"/><path class="cls-5" d="M285.72,213.01c-.66-.03-1.34.05-2,0-.95-1.86.98-3.79,1-4l1,4Z"/><path class="cls-5" d="M24.72,230.01c.01-.2-.02-1.27,0-2l.99.51-.99,1.49Z"/><path class="cls-5" d="M166.72,7.01c-1.5-.32-1.56-3.59,0-4,.11,1.31-.04,2.68,0,4Z"/><path class="cls-5" d="M10.72,341.01l1.99-.99v1.99c-.99.39-1.88-.98-1.99-1Z"/><path class="cls-5" d="M154.72,112.01l.99,1.99h-1.99c-.39-.99.98-1.88,1-1.99Z"/><path class="cls-5" d="M94.72,256.01c-.52,1.37-2.72,1.59-3,0,.99-.06,2,.04,3,0Z"/><path class="cls-5" d="M166.72,12.01c-1.5-.14-1.5-2.86,0-3v3Z"/><path class="cls-5" d="M72.72,445.01c0-.16-.7-1.55-1-3l1,3Z"/><polygon class="cls-5" points="297.72 426.01 296.72 427.01 296.73 425.01 297.72 426.01"/><path class="cls-8" d="M296.72,436.01l-.99-.51.99-1.49c-.04.66.04,1.34,0,2Z"/><polygon class="cls-5" points="71.72 440.01 70.72 440.01 71.22 439.03 71.72 440.01"/><path class="cls-8" d="M296.72,431.01l-.98-.5.98-.5c-.02.33.02.67,0,1Z"/><path class="cls-5" d="M46.72,398.01c-.32-.06-.67.03-1,0l.51-.98.49.98Z"/><path class="cls-5" d="M12.72,247.01c.02-.33-.03-.67,0-1l.98.5-.98.5Z"/><path class="cls-5" d="M12.72,252.01c0-.33,0-.67,0-1l.98.5-.98.5Z"/><path class="cls-5" d="M95.72,255.01c.03-.33-.04-.67,0-1l.98.51-.98.49Z"/><path class="cls-5" d="M49.72,256.01c.32.05.67-.03,1,0l-.51.98-.49-.98Z"/><path class="cls-5" d="M297.72,412.01l-1-1,1,1Z"/><path class="cls-5" d="M296.72,410.01l-.98-.5.98-.5c.03.33-.02.67,0,1Z"/><path class="cls-5" d="M296.72,399.01l1-1-1,1Z"/><path class="cls-5" d="M161.72.01c.33,0,.67-.02,1,0l-.5.98-.5-.98Z"/><path class="cls-7" d="M249.72,256.01c.03,9.32-.09,18.68,0,28,3.65.07,7.34-.04,11,0,4.19.67,4.3,12.17,1,14-3.99.05-8.02-.03-12.01,0-.03-4.65.05-9.35,0-14.01-3.85-.07-9.21,1.1-12-1.5v-26.5h12Z"/><path class="cls-7" d="M237.72,171.01h12.01c.03,4.65-.05,9.35,0,14h-12.01c-.03-4.65.05-9.35,0-14Z"/><path class="cls-7" d="M296.72,327.01c-.04,4.65.03,9.35,0,14.01h-12.01c.04-4.66-.02-9.36,0-14.01h12.01Z"/><path class="cls-3" d="M83.72,426.01c3.99.09,8.02-.06,12.01,0v14.01c-3.99-.09-8.02.06-12.01,0v-14.01Z"/><path class="cls-7" d="M225.72,128.01h-12.01c-.01-4.65.03-9.34,0-14l11.56.94c.88,4.28.36,8.74.44,13.06Z"/><path class="cls-7" d="M48.72,313.01c.04-4.99-.03-10.02,0-15.01h10.43s.58,15.01.58,15.01h-11Z"/><path class="cls-3" d="M154.72,171.01c-.1,4.65.07,9.35,0,14.01h-12.01c.2-4.73.66-9.31,1-14.01h11Z"/><path class="cls-3" d="M142.72,199.01c-.05,4.66.03,9.35,0,14.01h-12.01c.05-4.33-.03-8.69,0-13.01l12-.99Z"/><path class="cls-3" d="M272.72,284.01v14.01c-3.65.03-7.34-.05-11,0-.12-4.69.59-9.5-1-14,3.99.04,8.01-.02,12,0Z"/><path class="cls-3" d="M190.72,100.01c.07-4.11-.21-8.25.14-12.36l10.87-1.65v13.01c-.14,0-1.13.93-2.42,1.04-2.81.25-5.76-.23-8.58-.04Z"/><path class="cls-3" d="M180.72,114.01h-1l.43-.72c.24-.02.45.72.57.72Z"/><path class="cls-9" d="M190.72,242.01c3.86,1.3,2.02,11.08,0,14,2.41,18.77,1.54,38.14,0,57,1.76,3.58,2.52,7.58,2.27,12,4.31-.79,7.22-.12,8.73,2,.45,4.62,1.31,8.96,2.59,13.01l-1.09,1.99c.05-2.32.75-2.26,2.58-1.5,12.56-.93,28.96-.45,41.74,0,.7.02,1.04.71,1.19,1.5,2.67,2.9,3.09,10.16,0,13-1.14,2.28-4.06,3.25-8.76,2.9-.44.43-1.68,11.94,2.73,9.81,3.7-.39,6.05.38,7.03,2.29.84,5.47.84,11.14,0,17-.03,3.32.09,6.68,0,10v1c-3.74,2.5-7.25,2.48-11,0l-2.02-1.09-.19-10.26c-8.3-3.65-11.09-.95-9.78,8.02l-2.01,1.33c-.07.51-.19.98-.46,1.33-.6.79-17.89.11-19.89-.04-.25-.02-.45-.58-.65-1.3l-1.35-.19c1.01-9.23-2.59-13.73-10.8-13.5-.78-7.92-.92-16.05-.4-24.37-.78.8-1.26.15-1.45-1.95-4.01-1.55-16.65-2.39-23,0,1.56.29,1.42,1.21,0,2v3c2.71,2.91,2.75,6.11,0,9-1.23,1.13-1.23,2.8,0,5,2.72.9,2.73,2.09,0,3-.42,2.18-1.09,3.84-2,5-2.48.99-5.66,1.41-9.53,1.26-.18,4.11-.67,8.35-1.47,12.74-.09.56-.18.99-.3,1-5.72.29-13.39.35-19.1,0-1.1.8-1.83.45-2.09-1-2.09,8.49-1.79,17.49-1.27,26.76,2.29,5.01,2.34,11.26-.23,16.24,2.99-3.88,11.47-1.89,13,3,3.1.82,1.83,7.36-1,8,1.74,1.16,2.02,3.15,0,4-3.97-.07-8.04.21-12,0-.06-4.99.11-10.02,0-15-3.96-.26-8.04.18-12.01,0-.09-3.99.13-8.02,0-12.01v-4c-.02-1.66-.05-3.34,0-5v-2c0-1,.06-2.01,0-3-1.65-.38-2.14-.67-.76-1-3.47.45-6.55.11-9.24-1-.33,0-.67.02-1,0l-1-.15c-.03-14.07-.69-27.94-1.97-41.63l1.97-1.22c.66.03,1.33-.02,2,0,3.41-.51,8.43-.82,11,1,1.33,0,2.68.08,4,0,2.16-.67,4.49-1.33,7-2,.06-15.65-.08-31.35,0-47-.85-2.66-.85-5.36,0-8,.01-1.33-.02-2.67,0-4-.43-.67-.43-1.31,0-2l-.02-8.34c.29-1.11,1.89-.53,2.02-.66l.45-.95c4.05.66,7.23.31,9.55-1.05.37-7.55,0-15.41,0-23-1.58.11-1.45-2.64,0-3,.66-.03,1.34.04,2,0,2.4-1.75,7.97-1.55,10,0-2-.2-2.87-1.22-1-2.02-.47-4.61-.14-8.6,1-11.98,7.39-1.2,14.9-1.86,22.54-2l1.46,2c-3.3-.79-3.04-12.62,0-14,3.98-.07,8.03.19,12,0Z"/><path class="cls-4" d="M166.72,356.01c.08-.94-.45-3.07.51-3.01l21.83.99c1.12.29.54,1.93.65,2.03.4.34,2.58.1,2.9,1.55l-.76,22.82,10.92,4.08.94,11.56h21l.11-11.89,10.36-1.07,3.33,2.67.2,12.3c-.19.89-.52.85-1,0l-1.1,2.01-7.63.42-.27,23.14-2.01,1.42-1,1c-.57,2.14-3.02,3.05-7.34,2.73-1.53,2.54-3.28,4.78-4.66,1.27-7.13-7.34,7.8-9.47,11-5-.78-.21-1.91-.52-2-1.15-.53-3.54-.55-19.94,0-23.41l2-1.44c-.11.78-.37,1.94-.92,1.98-3.05.22-20.63-.11-22.29-1.03-2.75-3.42-3.93-7.89-3.55-13.4l-8.06-.65c-3.02-1.85-3.52-11.36-.18-12.9-.49-.48-.49-1.15,0-2-3.32-.96-3.06-13.45,0-15-6.97,1.97-14.03,1.97-21,0-.02,1.51-1.6,1.46-2,0Z"/><path class="cls-12" d="M201.72,314.01c4.98.21,1.97,6.84,1.95,9.46-.04,4.76-1.01,11.75,1.55,15.54h45.5l3.63,16.86,6.23.27,1.15,12.29-9.97.63-2.05,17.95c.06-5.64.13-11.36,0-17-3.09-3.8-3.78-10.92-1-15-.27-4.29.19-8.7,0-13h-45.5l-1.5-2.5c-.08-4.17.05-8.34,0-12.5-3.03-3.13-2.85-9.77,0-13Z"/><path class="cls-9" d="M237.72,398.01c2.72,4.93,2.78,10.09,0,15-.05,4.32.03,8.68,0,13.01l-11.01-1.01.14-25.86c3.39-1.7,7.23-1.03,10.86-1.14Z"/><path class="cls-12" d="M178.72,242.01v14h-24v14c-3.31.13-6.69-.18-10,0-.79-4.08,7.07-1.06,8.01-1.99l.1-12.9,13.9-1.1v-12.01c3.98-.05,8.01.08,11.99,0Z"/><path class="cls-12" d="M106.72,369.01l1,43c-.66-.04-1.34.06-2,0v-28.01s-9.57-.93-9.57-.93l-.3-12.92c3.37-1.52,7.24-1.29,10.86-1.14Z"/><path class="cls-11" d="M225.72,440.01c-.04,5,.57,10.19-1,15-3.32-.1-6.68.07-10,0-1.41,1.33-1.92.77-1-1-2.5-4.4-2.47-8.59,0-13,.55-3.24,10.65-3.94,12-1Z"/><path class="cls-11" d="M249.72,398.01c1.08,2.99,1.08,5.32,0,7-.17,2.37-.48,4.62-1.1,6.9l-10.9,1.1c.06-4.99-.04-10.01,0-15,.33-.01.67,0,1,0,3.66-.03,7.34.02,11,0Z"/><path class="cls-11" d="M190.72,242.01c.13,0,1.13-.96,2.42-1.04,2.62-.15,5.3.09,7.92.02,1.12.29.54,1.92.66,2.02,2.48,2.52,1.3,10.11,0,13-.23.09-.65-.02-1,0h-1c-2,.02-4,0-6,0-.06,2.86-2.32,2.73-3,0,0-.07-.67-.49-.67-1.28,0-3.81,1.37-8.58.67-12.72Z"/><path class="cls-9" d="M225.72,440.01l-12,1c-1.96-1.26-1.96-2.74,0-4-.56-.96-.58-2.02,0-3-2.52-1.48-2.52-2.52,0-4l1.89-.14.65-2.93,9.45-.93c-.02,4.66.03,9.34,0,14Z"/><path class="cls-11" d="M201.72,313.01c.04.33-.02.67,0,1,.22,4.29-.06,8.7,0,13h-11.01c-.03-4.65.05-9.35,0-14,.41-1.97,1.46-2.89,2.28-1,3.51-.41,6.42-.08,8.72,1Z"/><path class="cls-12" d="M193.72,256.01l-.99,55,8.85.19c.41.5.08,1.26.14,1.82h-11c-.18-18.98.04-38.02,0-57h3Z"/><path class="cls-12" d="M201.72,243.01c.15.13,1.37-.23,2.04.67,1.92,2.58-1.02,8.87-.04,12.34-.62.14-1.54-.18-2,0v-13Z"/><path class="cls-12" d="M108.72,369.01c3.05-2.08,7.42-.62,11.01-1v2c-4.03.01-8.18-.91-11.01-1Z"/><path class="cls-12" d="M108.72,412.01c3.32.08,6.68-.07,10.01,0,.05.66-.05,1.34,0,2h-10.01s0-2,0-2Z"/><path class="cls-12" d="M142.72,296.01c-.03.66.05,1.34,0,2h-10.01c.12-.12-.44-1.75.66-2.03,2.77-.71,6.43,1.7,9.34.03Z"/><path class="cls-12" d="M130.72,368.01l-1.67,1.82c-1.76.46-3.57.08-5.33.18v-2s7,0,7,0Z"/><path class="cls-12" d="M249.72,397.01l2.03,7.44-2.03.56c.17-2.3-.07-4.68,0-7,.01-.33,0-.67,0-1Z"/><path class="cls-12" d="M130.72,321.01c-1.68-1.58-1.67-6.46,0-8-.02,2.66.01,5.34,0,8Z"/><path class="cls-12" d="M142.72,270.01v3h-2s0-2.49,0-2.49c-.06-.91,1.34-.48,2.01-.51Z"/><path class="cls-12" d="M118.72,428.01c-.05-1.63.02-2.76,0-4v4Z"/><path class="cls-12" d="M118.72,419.01c.01-.37,0-1.59,0-2v2Z"/><path class="cls-12" d="M130.72,309.01c0-.19-.68-.46-.68-.8,0-.58.23-.87.68-1.2v2Z"/><path class="cls-12" d="M199.72,256.01h1c-.54.03-.68,0-1,0Z"/><path class="cls-8" d="M213.72,454.01l1,1c-1.98,4.25-.64,9.4-1,14-3.99,0-8.01,0-12,0-3.41.34-2.17-13.96-1.29-15.03,1.03-1.25,12.77-3.17,13.29.03Z"/><path class="cls-10" d="M189.72,356.01v15c-.5.86-.5,1.53,0,2v11.01s10.06.44,10.06.44l1.08,11.84,1.89,2.28,21.98.44v26h-11.01c.02,1.66-.03,3.34,0,5,.03,1.33,0,2.67,0,4-.55,1.03-.54,1.97,0,3-.02,1.33,0,2.67,0,4,.03,4.32-.02,8.68,0,13l-12,.99v14.01s-47,0-47,0v-14.01c-2.99-.04-6.01.07-9,0-1.43-1.02-2.43-2.35-3-4,.06-2.96.96-5.48,1-8-3.1-3.67-3.87-8.6-2.3-14.8-3.27-.72-6.55-1.4-9.85-2.03-1.17-1.47-1.43-25.61-.05-26.75.88-.73,1.51-1.1,2.7-.42.14-.56.29-.99.46-1,2.26-.12,18.59-.89,19.38-.33.36.25.53.76.66,1.33-2.28-.46-2.78-1.67-.43-2.06l.74-12.56c4.07.02,7.96-.44,11.68-1.38-1.47-.83-1.52-4.17,0-5,.05-1-.02-2,0-3-1.5-1.39-1.52-3.62,0-5,.04-2.99-.05-6.01,0-9-1.48-.69-1.48-2.31,0-3,.28-.89.94-1.56,2-2h21Z"/><path class="cls-6" d="M142.72,451.01c2.61-.61,2.47,1.95,3,4-1-.02-2,.02-3,0,.04-1.33-.03-2.67,0-4Z"/><path class="cls-6" d="M164.72,383.01c.56-1.91,1.44-1.91,2,0-.88,3.48-8.26,1.55-11.01,1.99l-.99,14.01h-20.5c-5.26,6.04-1.26,17.52-2.54,25.33l10.89,1.81c2.25,3.21,0,6.17.1,9.31.08,2.4,1.09,4.57,1.04,7.55l-1.32-.03c-1.72-3.25-8.05-2.73-11.68-2.97-.31-13.51-1.36-26.98-1.07-40.53l.23-1.3c.72-.15,1.98-1.17,2.34-1.17h21.5l.44-13.06c1.11-1.6,8.14-.94,10.56-.94Z"/><path class="cls-8" d="M248.72,355.01c.31,4.97.88,9.86,1,15-1.79.31-11.86-.42-12.06-1.58l.17-12.31,10.89-1.11Z"/><path class="cls-4" d="M166.72,378.01c-.07,1.5.3,3.8,0,5-.67,0-1.33,0-2,0v-5.01s2,0,2,0Z"/><path class="cls-4" d="M166.72,370.01c-.02,1.67.04,3.34,0,5h-2s-.02-4.36-.02-4.36l2.02-.64Z"/><path class="cls-4" d="M166.72,358.01c-.03,1,.02,2,0,3l-2.01-.51v-2.49c.66-.09,1.37.08,2.01,0Z"/><path class="cls-2" d="M168.72,356.01v2c-.65.1-1.36-.08-2,0,.02-.66-.06-1.34,0-2h2Z"/><polygon class="cls-2" points="189.72 373.01 188.72 372.5 189.72 371.01 189.72 373.01"/><path class="cls-4" d="M213.72,437.01c-1.2-1-1.2-2,0-3,0,.88.01,2.07,0,3Z"/></svg>